PathFileType	4	(X/Y/Z)	C:/Users/beibeiliu/ov580/test_trc/User3\sequence.10_training_dense_left.trc
DataRate	CameraRate	NumFrames	NumMarkers	Units	OrigDataRate	OrigDataStartFrame	OrigNumFrames
120	120	15	19	mm	120	132	263
Frame#	Time	ThumbCMC			ThumbMCP			ThumbIP			ThumbTip			IndexMCP			IndexPIP			IndexTip			MiddleMCP			MiddlePIP			MiddleTip			RingMCP			RingPIP			RingTip			PinkyMCP			PinkyPIP			PinkyTip			BackHand1			BackHand2			BackHand3	
		X0	Y0	Z0	X1	Y1	Z1	X2	Y2	Z2	X3	Y3	Z3	X4	Y4	Z4	X5	Y5	Z5	X6	Y6	Z6	X7	Y7	Z7	X8	Y8	Z8	X9	Y9	Z9	X10	Y10	Z10	X11	Y11	Z11	X12	Y12	Z12	X13	Y13	Z13	X14	Y14	Z14	X15	Y15	Z15	X16	Y16	Z16	X17	Y17	Z17	X18	Y18	Z18	
131	1.09167	-173.592	-4.44628	35.4575	-146.082	-0.00384911	26.0626	-121.764	11.7291	21.8185	-102.216	19.9097	19.3374	-135.353	-16.2338	-25.5534	-119.195	-37.0471	-9.29764	-144.839	-36.85	12.9814	-143.302	-35.1597	-34.2135	-131.366	-52.7297	-9.82623	-164.073	-41.231	10.9817	-158.388	-52.0784	-29.5721	-148.75	-66.3617	-3.12943	-170.954	-52.0698	16.3889	-170.159	-60.7953	-26.8884	-161.327	-70.8492	-2.27849	-183.092	-56.2704	17.8165	-209.275	-27.2153	-17.5196	-225.664	-24.119	9.68633	-200.546	-2.24908	11.0039	
132	1.1	-173.402	-3.17383	34.3356	-145.185	2.66216	27.3385	-122.272	14.6579	20.114	-105.716	21.5363	20.946	-139.197	-15.5598	-27.1531	-122.383	-38.6563	-10.9467	-144.533	-35.4103	13.2231	-144.419	-34.1534	-35.0991	-133.655	-53.0631	-12.4055	-165.409	-40.4266	10.0948	-156.201	-48.2113	-30.1578	-149.49	-64.5937	-4.086	-168.374	-49.1091	16.5237	-171.062	-60.0674	-27.7728	-161.059	-68.7562	-2.32929	-182.89	-56.0519	15.0664	-206.653	-25.4297	-17.2182	-227.651	-25.3182	13.9795	-198.213	0.529374	7.74666	
133	1.10833	-171.818	-1.3187	35.3782	-148.806	1.41558	28.9189	-124.807	12.7127	20.17	-105.125	25.938	20.3157	-140.52	-11.7323	-27.0771	-123.74	-36.309	-12.9705	-146.859	-34.2709	12.5033	-148.14	-31.9832	-36.2966	-131.771	-48.6024	-13.6931	-163.194	-43.093	8.96268	-163.682	-49.8917	-33.629	-148.04	-62.3328	-8.65544	-170.064	-47.9896	15.0564	-174.162	-63.0558	-29.5431	-162.519	-72.3762	-5.47045	-179.352	-57.9254	13.45	-212.294	-24.0588	-13.9953	-228.805	-26.44	13.1668	-202.693	-1.77191	10.6791	
134	1.11667	-174.343	-5.05674	37.6287	-148.293	-0.437998	23.1431	-125.51	12.8979	17.6307	-107.817	23.6132	19.335	-142.287	-11.7035	-28.223	-122.467	-33.6919	-9.11137	-146.596	-36.1364	9.7486	-148.137	-28.7708	-36.4063	-132.793	-49.8734	-18.3457	-162.818	-38.7243	9.87812	-163.567	-48.8629	-34.255	-148.717	-62.5162	-8.90256	-173.127	-50.2219	14.1387	-171.933	-63.4638	-30.7234	-161.345	-68.0676	-4.76672	-180.193	-55.7262	14.1757	-209.742	-25.8792	-16.7986	-227.068	-24.5557	10.2636	-201.621	0.1265	10.0362	
135	1.125	-175.907	-4.94376	39.3484	-150.648	-0.272376	26.7461	-126.124	14.2232	16.4788	-109.815	26.135	20.3786	-140.142	-14.2833	-29.1337	-126.356	-37.1683	-12.8163	-150.15	-36.0493	9.18207	-150.14	-29.2031	-36.946	-133.029	-47.903	-18.344	-167.5	-42.1455	7.4857	-160.24	-46.0907	-32.644	-151.454	-64.9387	-8.25453	-170.85	-49.8801	14.3267	-177.224	-59.4417	-30.3994	-163.033	-70.2072	-5.18793	-181.587	-59.3196	15.2105	-211.475	-24.0851	-14.4587	-228.8	-30.2904	9.28891	-202.066	-1.55588	11.4796	
136	1.13333	-175.877	-7.07456	32.3185	-150.562	1.72185	21.215	-129.926	15.3576	16.6283	-112.376	28.702	14.6092	-141.029	-14.3841	-30.6525	-126.373	-37.2539	-15.8855	-148.888	-36.9824	7.4921	-150.557	-30.2263	-38.7355	-134.202	-49.1849	-17.464	-164.567	-39.1695	8.60016	-164.87	-48.5015	-34.4931	-150.228	-63.9694	-13.8307	-173.013	-52.1208	13.2056	-173.137	-63.1145	-30.8274	-164.472	-73.6461	-7.35153	-183.692	-58.3539	15.6624	-212.429	-25.4393	-12.5674	-230.071	-30.8666	10.5467	-203.831	-4.26926	9.33168	
137	1.14167	-178.581	-6.9896	29.927	-154.839	1.63787	19.9958	-133.172	16.0572	5.92541	-116.225	29.6807	3.479	-146.955	-12.9506	-33.4614	-125.286	-33.7651	-15.5001	-148.711	-31.7066	7.84742	-155.719	-30.7619	-39.6837	-134.858	-50.2372	-18.6222	-165.848	-44.4883	5.98296	-167.868	-51.8797	-36.9882	-152.433	-67.5481	-14.8821	-171.745	-51.81	12.0898	-174.924	-64.4073	-31.3591	-164.21	-73.4182	-6.92053	-179.781	-63.0006	13.4587	-214.95	-28.9882	-15.2222	-229.748	-34.4899	12.1137	-204.798	-3.81152	7.89439	
138	1.15	-180.838	-8.18559	30.0976	-158.984	-0.0571737	13.9052	-137.476	20.0668	-1.78044	-123.099	31.5548	-4.50598	-148.167	-16.1194	-37.5567	-128.625	-36.9292	-19.1681	-152.371	-31.0121	5.34011	-155.24	-37.3465	-43.874	-136.939	-51.4831	-20.0138	-165.247	-44.79	5.30003	-168.248	-52.8942	-38.1742	-149.946	-65.8727	-14.6057	-171.878	-58.0596	9.75379	-173.361	-65.5115	-31.5742	-162.509	-75.0295	-7.29025	-178.605	-64.4453	11.9689	-216.901	-35.2823	-20.7659	-230.996	-37.5828	13.6074	-206.208	-6.82932	4.21271	
139	1.15833	-181.06	-5.18545	24.7307	-161.608	2.84017	6.62963	-144.305	16.2561	-11.2537	-131.627	27.834	-16.7301	-149.302	-17.1063	-40.0366	-128.996	-34.5518	-19.9982	-151.075	-34.4702	1.40059	-156.064	-42.8354	-45.691	-137.007	-52.8994	-24.4655	-164.225	-44.7153	4.44316	-166.405	-58.0248	-37.3816	-151.239	-68.7055	-11.7421	-171.462	-54.3769	10.2414	-178.589	-70.5917	-32.7939	-161.475	-77.6491	-10.1168	-182.618	-66.1446	10.8369	-217.959	-39.5305	-16.1022	-231.195	-41.7069	7.71971	-210.844	-13.2075	4.04203	
140	1.16667	-183.749	-7.5741	21.104	-164.176	1.14348	4.66293	-147.284	14.9451	-15.519	-133.264	29.5805	-24.5961	-152.3	-23.7287	-42.9567	-131.082	-39.4989	-22.3179	-153.808	-37.5304	-0.044317	-159.231	-42.2063	-44.5621	-138.618	-56.1599	-22.99	-168.707	-45.1189	3.32895	-166.417	-59.3421	-38.0334	-149.863	-67.8248	-9.90181	-171.343	-54.3905	9.97404	-175.658	-74.4368	-31.4913	-161.046	-78.5025	-8.39673	-178.236	-65.7995	9.70297	-217.492	-43.5023	-18.0157	-231.488	-43.7545	12.8121	-210.817	-11.3645	-0.840993	
141	1.175	-183.028	-6.93437	20.4279	-165.491	-2.36327	-0.356407	-148.774	14.1151	-18.5798	-136.849	21.3675	-29.3385	-153.729	-23.8465	-43.4393	-130.629	-39.5349	-27.3713	-154.221	-34.9279	-0.198125	-160.82	-47.9034	-46.0382	-137.937	-55.6882	-18.634	-166.779	-46.3152	4.25729	-165.687	-67.1814	-36.7529	-151.977	-72.8028	-11.5481	-171.996	-60.7191	10.3138	-172.914	-79.8418	-30.4785	-160.473	-81.5742	-7.63742	-181.761	-65.5946	14.5851	-216.228	-47.0088	-21.461	-231.552	-46.2549	7.90786	-210.838	-17.6662	-0.601294	
142	1.18333	-181.968	-6.87828	19.9497	-165.653	-3.68576	-3.99377	-149.557	8.05533	-26.121	-137.344	15.7809	-39.8868	-155.678	-29.5911	-47.4662	-132.314	-46.5153	-29.0205	-151.872	-41.1637	-3.7221	-158.795	-51.4298	-45.7511	-139.47	-62.4711	-22.6064	-169.856	-50.7871	2.46584	-168.587	-67.5883	-36.618	-152.438	-75.6168	-10.9032	-172.264	-54.6665	10.6738	-174.366	-84.7481	-28.4589	-160.52	-80.8256	-6.09687	-180.638	-69.9635	16.2334	-217.719	-48.9785	-19.1871	-232.357	-49.1675	8.56087	-212.457	-20.1306	-1.28401	
143	1.19167	-183.322	-8.1222	14.5117	-167.459	-7.10179	-9.17437	-152.398	3.16032	-31.9351	-140.168	8.81362	-49.1794	-157.935	-35.9026	-49.0618	-133.067	-49.382	-32.2143	-152.165	-40.7743	-5.37964	-161.695	-60.8841	-46.7692	-142.01	-66.4718	-21.6001	-168.342	-48.8854	2.73773	-171.953	-73.5914	-35.5292	-153.878	-77.4481	-7.11745	-170.54	-60.6275	11.756	-181.136	-87.9833	-26.4364	-161.991	-83.1576	-4.52617	-184.02	-68.3347	16.3785	-219.547	-50.6041	-20.0999	-232.478	-50.548	11.7484	-212.08	-23.2512	-2.1824	
144	1.2	-183.506	-9.23114	12.5258	-169.492	-4.19378	-14.8939	-156.538	-0.153868	-40.0488	-144.303	5.78011	-59.0196	-163.068	-40.6854	-52.3412	-135.69	-49.6505	-34.4179	-154.729	-38.409	-7.51811	-168.212	-63.5376	-48.0935	-143.884	-69.0494	-27.1626	-168.163	-48.518	0.85439	-170.825	-76.9315	-34.6106	-154.702	-79.4822	-12.6153	-175.482	-59.4788	11.341	-183.447	-86.8586	-24.9435	-165.091	-85.0895	-2.16401	-181.125	-71.5582	15.6849	-221.708	-52.875	-16.6709	-233.097	-48.9406	14.7302	-211.873	-22.5555	-5.29004	
145	1.20833	-184.314	-7.5347	6.78225	-172.721	-5.21604	-17.5096	-161.523	-3.09098	-46.1696	-151.195	-0.675551	-64.6547	-165.452	-45.6354	-54.3365	-140.558	-54.0332	-39.4391	-152.979	-41.8546	-11.3857	-174.546	-66.1982	-47.9573	-148.84	-71.8075	-29.4149	-170.66	-48.9465	0.232706	-180.151	-76.5763	-35.7869	-158.513	-80.9725	-12.3716	-176.095	-59.0378	8.03944	-183.545	-93.346	-25.1813	-167.482	-89.1441	-3.88806	-184.133	-72.3411	15.4193	-224.942	-56.5717	-11.9689	-234.672	-49.4117	18.0675	-213.868	-21.8235	-1.8961	
